# xmcd
#
# Track frame offsets: 
#        150
#        12258
#        29457
#        42742
#        55317
#        66906
#        80988
#        95750
#        108250
#        122828
#        140458
#        152638
#        172003
#        184286
#
# Disc length: 2635 seconds
#
# Revision: 0
# Processed by: cddbd v1.5.1PL0 Copyright (c) Steve Scherf et al.
# Submitted via: ExactAudioCopy v0.95a3
#
DISCID=ce0a490e
DTITLE=Otis Redding - The best of
DYEAR=2005
DGENRE=Soul
TTITLE0=(Sittin' on)The dock of the bay
TTITLE1=Try a little tenderness
TTITLE2=I've been loving you too long
TTITLE3=Satisfaction (I can't get no)
TTITLE4=These arms of mine
TTITLE5=Amen
TTITLE6=I've got dreams to remember
TTITLE7=Fa-Fa-Fa-Fa-Fa (Sad song)
TTITLE8=My lovers' prayer
TTITLE9=You're still my baby
TTITLE10=Ole man trouble
TTITLE11=A change is gonna come
TTITLE12=Shake
TTITLE13=My girl
EXTD=
EXTT0=
EXTT1=
EXTT2=
EXTT3=
EXTT4=
EXTT5=
EXTT6=
EXTT7=
EXTT8=
EXTT9=
EXTT10=
EXTT11=
EXTT12=
EXTT13=
PLAYORDER=
